<svg width="16" height="27" viewBox="0 0 16 27" fill="none" xmlns="http://www.w3.org/2000/svg">
<path d="M9.05591 25.9021C8.48273 26.4485 7.56175 26.4502 6.98674 25.9018C6.98532 25.9005 6.98384 25.8991 6.98233 25.8977L6.98145 25.8968L6.9692 25.885L1.89627 20.9982L2.24315 20.6381L1.89626 20.9982C1.31054 20.4339 1.31264 19.5121 1.90134 18.9505C2.47794 18.4003 3.40229 18.4024 3.97632 18.9553L3.97634 18.9553L6.54357 21.4283L6.54357 2.75C6.54357 1.93639 7.22534 1.3125 8.02149 1.3125C8.81764 1.3125 9.49941 1.93639 9.49941 2.75L9.49941 21.4284L12.0666 18.9553L12.0667 18.9552C12.6407 18.4023 13.5651 18.4003 14.1417 18.9505C14.7302 19.512 14.7325 20.4338 14.1467 20.9982L14.1467 20.9982L9.06359 25.8948M9.05591 25.9021C9.05564 25.9024 9.05537 25.9026 9.0551 25.9029C9.04686 25.9106 9.04014 25.9163 9.0377 25.9184L9.03902 25.9172C9.04215 25.9145 9.04923 25.9084 9.05796 25.9002C9.05727 25.9008 9.0566 25.9015 9.05591 25.9021ZM9.05591 25.9021C9.05828 25.8999 9.06085 25.8975 9.06359 25.8948M9.06359 25.8948L9.06153 25.8968L8.71464 25.5367L9.08738 25.87C9.07869 25.8797 9.07059 25.888 9.06359 25.8948Z" fill="#61C277" stroke="#61C277"/>
</svg>
