<svg width="16" height="27" viewBox="0 0 16 27" fill="none" xmlns="http://www.w3.org/2000/svg">
<path d="M6.98694 1.72287C7.56011 1.17651 8.48109 1.17478 9.0561 1.72315C9.05753 1.72448 9.059 1.72588 9.06052 1.72733L9.06139 1.72817L9.07364 1.73999L14.1466 6.62679L13.7997 6.98689L14.1466 6.6268C14.7323 7.19105 14.7302 8.11289 14.1415 8.67452C13.5649 9.22465 12.6406 9.22264 12.0665 8.66972L12.0665 8.66971L9.49927 6.19667L9.49928 24.875C9.49928 25.6886 8.8175 26.3125 8.02136 26.3125C7.22521 26.3125 6.54344 25.6886 6.54344 24.875L6.54343 6.19665L3.97621 8.66975L3.97619 8.66977C3.40215 9.22269 2.47778 9.2247 1.90118 8.67455C1.31261 8.11297 1.3103 7.19119 1.89613 6.62685L1.89613 6.62684L6.97926 1.7302M6.98694 1.72287C6.98721 1.72261 6.98748 1.72236 6.98774 1.72211C6.99599 1.71444 7.00271 1.70872 7.00515 1.70665L7.00382 1.70778C7.0007 1.71045 6.99362 1.71656 6.98489 1.72485C6.98557 1.72419 6.98625 1.72352 6.98694 1.72287ZM6.98694 1.72287C6.98457 1.72508 6.982 1.72753 6.97926 1.7302M6.97926 1.7302L6.98132 1.72822L7.3282 2.08831L6.95547 1.75505C6.96415 1.74533 6.97226 1.73703 6.97926 1.7302Z" fill="#363062" stroke="#363062"/>
</svg>
