<svg width="16" height="27" viewBox="0 0 16 27" fill="none" xmlns="http://www.w3.org/2000/svg">
<path d="M9.05579 25.9021C8.48261 26.4485 7.56163 26.4502 6.98662 25.9018C6.9852 25.9005 6.98372 25.8991 6.9822 25.8977L6.98133 25.8968L6.96908 25.885L1.89615 20.9982L2.24303 20.6381L1.89614 20.9982C1.31042 20.4339 1.31252 19.5121 1.90122 18.9505C2.47782 18.4003 3.40217 18.4024 3.9762 18.9553L3.97622 18.9553L6.54345 21.4283L6.54345 2.75C6.54345 1.93639 7.22522 1.3125 8.02137 1.3125C8.81752 1.3125 9.49929 1.93639 9.49929 2.75L9.49929 21.4284L12.0665 18.9553L12.0665 18.9552C12.6406 18.4023 13.5649 18.4003 14.1415 18.9505C14.7301 19.512 14.7324 20.4338 14.1466 20.9982L14.1466 20.9982L9.06346 25.8948M9.05579 25.9021C9.05551 25.9024 9.05524 25.9026 9.05498 25.9029C9.04673 25.9106 9.04001 25.9163 9.03757 25.9184L9.0389 25.9172C9.04202 25.9145 9.04911 25.9084 9.05784 25.9002C9.05715 25.9008 9.05647 25.9015 9.05579 25.9021ZM9.05579 25.9021C9.05815 25.8999 9.06072 25.8975 9.06346 25.8948M9.06346 25.8948L9.0614 25.8968L8.71452 25.5367L9.08726 25.87C9.07857 25.8797 9.07046 25.888 9.06346 25.8948Z" fill="#61C277" stroke="#61C277"/>
</svg>
