<svg width="16" height="27" viewBox="0 0 16 27" fill="none" xmlns="http://www.w3.org/2000/svg">
<path d="M6.98718 1.72287C7.56036 1.17651 8.48134 1.17478 9.05635 1.72315C9.05777 1.72448 9.05925 1.72588 9.06076 1.72733L9.06163 1.72817L9.07389 1.73999L14.1468 6.62679L13.7999 6.98689L14.1468 6.6268C14.7326 7.19105 14.7304 8.11289 14.1417 8.67452C13.5651 9.22465 12.6408 9.22264 12.0668 8.66972L12.0667 8.66971L9.49952 6.19667L9.49952 24.875C9.49952 25.6886 8.81775 26.3125 8.0216 26.3125C7.22545 26.3125 6.54368 25.6886 6.54368 24.875L6.54368 6.19665L3.97645 8.66975L3.97643 8.66977C3.40239 9.22269 2.47802 9.2247 1.90143 8.67455C1.31285 8.11297 1.31055 7.19119 1.89637 6.62685L1.89638 6.62684L6.9795 1.7302M6.98718 1.72287C6.98745 1.72261 6.98772 1.72236 6.98799 1.72211C6.99623 1.71444 7.00295 1.70872 7.00539 1.70665L7.00406 1.70778C7.00094 1.71045 6.99386 1.71656 6.98513 1.72485C6.98582 1.72419 6.98649 1.72352 6.98718 1.72287ZM6.98718 1.72287C6.98481 1.72508 6.98224 1.72753 6.9795 1.7302M6.9795 1.7302L6.98156 1.72822L7.32845 2.08831L6.95571 1.75505C6.96439 1.74533 6.9725 1.73703 6.9795 1.7302Z" fill="#363062" stroke="#363062"/>
</svg>
