<svg width="16" height="27" viewBox="0 0 16 27" fill="none" xmlns="http://www.w3.org/2000/svg">
<path d="M9.05603 25.9021C8.48286 26.4485 7.56188 26.4502 6.98686 25.9018C6.98544 25.9005 6.98397 25.8991 6.98245 25.8977L6.98158 25.8968L6.96932 25.885L1.89639 20.9982L2.24328 20.6381L1.89639 20.9982C1.31066 20.4339 1.31276 19.5121 1.90146 18.9505C2.47806 18.4003 3.40242 18.4024 3.97645 18.9553L3.97646 18.9553L6.54369 21.4283L6.54369 2.75C6.54369 1.9364 7.22547 1.3125 8.02161 1.3125C8.81776 1.3125 9.49953 1.93639 9.49953 2.75L9.49953 21.4284L12.0668 18.9553L12.0668 18.9552C12.6408 18.4023 13.5652 18.4003 14.1418 18.9505C14.7304 19.512 14.7327 20.4338 14.1468 20.9982L14.1468 20.9982L9.06371 25.8948M9.05603 25.9021C9.05576 25.9024 9.05549 25.9026 9.05522 25.9029C9.04698 25.9106 9.04026 25.9163 9.03782 25.9184L9.03915 25.9172C9.04227 25.9145 9.04935 25.9084 9.05808 25.9002C9.0574 25.9008 9.05672 25.9015 9.05603 25.9021ZM9.05603 25.9021C9.0584 25.8999 9.06097 25.8975 9.06371 25.8948M9.06371 25.8948L9.06165 25.8968L8.71476 25.5367L9.0875 25.87C9.07882 25.8797 9.07071 25.888 9.06371 25.8948Z" fill="#61C277" stroke="#61C277"/>
</svg>
