<svg width="16" height="27" viewBox="0 0 16 27" fill="none" xmlns="http://www.w3.org/2000/svg">
<path d="M6.98706 1.72287C7.56023 1.17651 8.48121 1.17478 9.05623 1.72315C9.05765 1.72448 9.05912 1.72588 9.06064 1.72733L9.06151 1.72817L9.07377 1.73999L14.1467 6.62679L13.7998 6.98689L14.1467 6.6268C14.7324 7.19105 14.7303 8.11289 14.1416 8.67452C13.565 9.22465 12.6407 9.22264 12.0666 8.66972L12.0666 8.66971L9.4994 6.19667L9.4994 24.875C9.4994 25.6886 8.81762 26.3125 8.02148 26.3125C7.22533 26.3125 6.54356 25.6886 6.54356 24.875L6.54356 6.19665L3.97633 8.66975L3.97631 8.66977C3.40227 9.22269 2.4779 9.2247 1.9013 8.67455C1.31273 8.11297 1.31043 7.19119 1.89625 6.62685L1.89625 6.62684L6.97938 1.7302M6.98706 1.72287C6.98733 1.72261 6.9876 1.72236 6.98787 1.72211C6.99611 1.71444 7.00283 1.70872 7.00527 1.70665L7.00394 1.70778C7.00082 1.71045 6.99374 1.71656 6.98501 1.72485C6.98569 1.72419 6.98637 1.72352 6.98706 1.72287ZM6.98706 1.72287C6.98469 1.72508 6.98212 1.72753 6.97938 1.7302M6.97938 1.7302L6.98144 1.72822L7.32833 2.08831L6.95559 1.75505C6.96427 1.74533 6.97238 1.73703 6.97938 1.7302Z" fill="#363062" stroke="#363062"/>
</svg>
