<svg width="16" height="27" viewBox="0 0 16 27" fill="none" xmlns="http://www.w3.org/2000/svg">
<path d="M9.05615 25.9021C8.48298 26.4485 7.562 26.4502 6.98699 25.9018C6.98556 25.9005 6.98409 25.8991 6.98257 25.8977L6.9817 25.8968L6.96945 25.885L1.89651 20.9982L2.2434 20.6381L1.89651 20.9982C1.31078 20.4339 1.31288 19.5121 1.90159 18.9505C2.47819 18.4003 3.40254 18.4024 3.97657 18.9553L3.97658 18.9553L6.54382 21.4283L6.54382 2.75C6.54382 1.9364 7.22559 1.3125 8.02174 1.3125C8.81788 1.3125 9.49966 1.93639 9.49966 2.75L9.49966 21.4284L12.0669 18.9553L12.0669 18.9552C12.6409 18.4023 13.5653 18.4003 14.1419 18.9505C14.7305 19.512 14.7328 20.4338 14.147 20.9982L14.147 20.9982L9.06383 25.8948M9.05615 25.9021C9.05588 25.9024 9.05561 25.9026 9.05535 25.9029C9.0471 25.9106 9.04038 25.9163 9.03794 25.9184L9.03927 25.9172C9.04239 25.9145 9.04947 25.9084 9.0582 25.9002C9.05752 25.9008 9.05684 25.9015 9.05615 25.9021ZM9.05615 25.9021C9.05852 25.8999 9.06109 25.8975 9.06383 25.8948M9.06383 25.8948L9.06177 25.8968L8.71489 25.5367L9.08762 25.87C9.07894 25.8797 9.07083 25.888 9.06383 25.8948Z" fill="#61C277" stroke="#61C277"/>
</svg>
